<svg id="Layer_1" enable-background="new 0 0 511.938 511.938" height="512" viewBox="0 0 511.938 511.938" width="512" xmlns="http://www.w3.org/2000/svg"><g><circle cx="103.709" cy="135.88" fill="#0a789b" r="103.191"/><circle cx="103.709" cy="135.88" fill="#08475e" r="39.472"/><circle cx="318.55" cy="127.422" fill="#08475e" r="111.649"/><circle cx="318.55" cy="127.422" fill="#002659" r="42.707"/><path d="m408.971 419.914 94.695 57.96c3.622 2.217 8.273-.39 8.273-4.636v-219.616c0-4.251-4.66-6.856-8.281-4.631l-94.686 58.19v112.733z" fill="#0d8ebc"/><path d="m398.168 496.166h-381.955c-8.954 0-16.213-7.259-16.213-16.214v-233.064c0-8.954 7.259-16.213 16.213-16.213h381.955c8.954 0 16.213 7.259 16.213 16.213v233.064c.001 8.955-7.258 16.214-16.213 16.214z" fill="#08475e"/><path d="m414.382 479.952v-233.064c0-8.954-7.259-16.213-16.213-16.213h-190.978v265.49h190.977c8.955.001 16.214-7.258 16.214-16.213z" fill="#002659"/><path d="m162.357 344.263h-118.908c-3.29 0-5.957-2.667-5.957-5.957v-44.857c0-3.29 2.667-5.957 5.957-5.957h118.908c3.29 0 5.957 2.667 5.957 5.957v44.857c0 3.29-2.667 5.957-5.957 5.957z" fill="#7affe4"/><circle cx="341.32" cy="303.511" fill="#ff405c" r="16.02"/><circle cx="280.252" cy="303.511" fill="#ffed00" r="16.02"/><path d="m0 411.945v67.02c0 9.5 7.701 17.201 17.201 17.201h379.979c9.5 0 17.201-7.701 17.201-17.201v-67.02z" fill="#0a617d"/><path d="m414.382 478.965v-67.02h-207.191v84.221h189.989c9.5 0 17.202-7.701 17.202-17.201z" fill="#08475e"/></g></svg>